<svg id="Groupe_245" data-name="Groupe 245" xmlns="http://www.w3.org/2000/svg" xmlns:xlink="http://www.w3.org/1999/xlink" width="33.548" height="33.548" viewBox="0 0 33.548 33.548">
  <defs>
    <clipPath id="clip-path">
      <rect id="Rectangle_927" data-name="Rectangle 927" width="33.548" height="33.548" fill="none"/>
    </clipPath>
  </defs>
  <g id="Groupe_244" data-name="Groupe 244" transform="translate(0 0)" clip-path="url(#clip-path)">
    <path id="Tracé_778" data-name="Tracé 778" d="M0,33.548A40.55,40.55,0,0,1,1.443,28.7c.19-.509.377-1.021.575-1.522a1.341,1.341,0,0,1,.532-.517c.975-.887,2.716-2.711,3.685-3.653C12.286,16.962,21.176,8.067,27.2,2.042A53.164,53.164,0,0,1,33.548,0a52.654,52.654,0,0,1-2.042,6.345c-6.016,6.017-14.928,14.927-20.968,20.968-.94.966-2.758,2.7-3.653,3.685a1.341,1.341,0,0,1-.517.532c-.5.2-1.013.385-1.522.575A40.606,40.606,0,0,1,0,33.548" transform="translate(0 0)" fill="#fff"/>
    <path id="Tracé_779" data-name="Tracé 779" d="M0,0A40.583,40.583,0,0,1,4.847,1.443c.509.19,1.021.377,1.522.575a1.341,1.341,0,0,1,.517.532c.887.975,2.711,2.716,3.653,3.685C16.586,12.286,25.482,21.176,31.506,27.2a53.1,53.1,0,0,1,2.042,6.345A52.722,52.722,0,0,1,27.2,31.506C21.186,25.491,12.276,16.578,6.235,10.539c-.966-.94-2.7-2.758-3.685-3.653a1.341,1.341,0,0,1-.532-.517c-.2-.5-.385-1.013-.575-1.522A40.606,40.606,0,0,1,0,0" transform="translate(0 0)" fill="#fff"/>
  </g>
</svg>
