<svg xmlns="http://www.w3.org/2000/svg" xmlns:xlink="http://www.w3.org/1999/xlink" width="44.755" height="34.703" viewBox="0 0 44.755 34.703">
  <defs>
    <clipPath id="clip-path">
      <rect id="Rectangle_63" data-name="Rectangle 63" width="44.755" height="34.703" fill="#fff"/>
    </clipPath>
  </defs>
  <g id="Groupe_332" data-name="Groupe 332" transform="translate(0)">
    <g id="Groupe_26" data-name="Groupe 26" transform="translate(0 0)" clip-path="url(#clip-path)">
      <path id="Tracé_30" data-name="Tracé 30" d="M34.6,28.85c-.294-.234-.578-.458-.859-.687a.121.121,0,0,0-.15-.012q-1.15.542-2.345.976a26.77,26.77,0,0,1-3.042.9,25.185,25.185,0,0,1-2.579.465c-.386.049-.773.09-1.162.118s-.778.046-1.167.068c-.53.031-1.06.026-1.589.012-.461-.012-.922-.039-1.383-.078q-.916-.077-1.823-.212a25.362,25.362,0,0,1-2.616-.538,27.953,27.953,0,0,1-3.579-1.2c-.392-.161-.779-.332-1.164-.51-.059-.027-.105-.047-.167,0-.28.23-.563.455-.861.695a23.613,23.613,0,0,0,3.8,1.858c-.127.29-.271.555-.414.819a28.381,28.381,0,0,1-1.52,2.5c-.138.2-.285.4-.42.6a.121.121,0,0,1-.166.052c-1.1-.347-2.174-.738-3.233-1.183q-1.257-.528-2.472-1.147-1.542-.79-3-1.72c-.787-.5-1.549-1.035-2.307-1.576a.516.516,0,0,1-.236-.439c-.015-.406-.051-.811-.081-1.216C-.029,26.168.008,24.924,0,23.68c0-.373.019-.747.044-1.119.037-.549.077-1.1.134-1.645q.163-1.56.448-3.1a37.413,37.413,0,0,1,.991-4.054A38.093,38.093,0,0,1,3.068,9.806c.339-.789.7-1.568,1.087-2.334Q5.123,5.56,6.268,3.749c.155-.245.316-.486.469-.733a.431.431,0,0,1,.2-.171q1.4-.645,2.841-1.178c.848-.311,1.707-.587,2.575-.835C13.513.5,14.692.236,15.881.016c.168-.031.168-.03.248.116.391.721.752,1.456,1.072,2.212a.127.127,0,0,0,.162.092c.621-.094,1.244-.174,1.871-.228q.706-.061,1.414-.1c.346-.02.691-.013,1.036-.035.318-.02.636-.022.953-.015.407.009.814.016,1.22.034q.734.032,1.465.1c.681.062,1.36.141,2.037.241.118.018.118.018.169-.1q.376-.885.812-1.743c.08-.159.175-.311.25-.473.053-.113.063-.129.207-.1.515.093,1.028.194,1.539.308a36.432,36.432,0,0,1,3.986,1.128c1.007.348,2,.737,2.968,1.175.173.078.344.16.518.232a.364.364,0,0,1,.164.16c.326.506.654,1.011.967,1.526q1.012,1.667,1.872,3.417a39.183,39.183,0,0,1,1.6,3.734q.638,1.743,1.107,3.539c.26,1,.476,2,.656,3.018.115.646.207,1.3.283,1.948.069.591.129,1.183.17,1.776.025.367.045.733.067,1.1.025.413.009.826.038,1.236a6.494,6.494,0,0,1,.022.749c-.023.5-.029,1-.043,1.5-.011.395-.039.789-.066,1.183-.025.36-.061.72-.088,1.08a.208.208,0,0,1-.11.156c-.384.288-.774.566-1.168.84a37.021,37.021,0,0,1-3.313,2.051,36.233,36.233,0,0,1-4.318,2.009c-.723.28-1.455.531-2.191.775-.233.077-.234.077-.382-.13a26.5,26.5,0,0,1-1.8-2.879q-.218-.405-.432-.812c-.054-.1-.05-.114.06-.156a23.585,23.585,0,0,0,2.183-.973c.492-.249.974-.519,1.45-.8a.741.741,0,0,0,.067-.052m-4.83-5.177a3.689,3.689,0,0,0,.6-.049,3.813,3.813,0,0,0,2.046-1.061,4.444,4.444,0,0,0,.8-1.083,5.289,5.289,0,0,0,.564-3.008,4.829,4.829,0,0,0-.541-1.778,4.1,4.1,0,0,0-1.969-1.883,3.506,3.506,0,0,0-2.779-.078,4.032,4.032,0,0,0-2.14,1.953,5,5,0,0,0-.519,3.224,4.623,4.623,0,0,0,1.527,2.821,3.669,3.669,0,0,0,2.4.943M18.949,19.048a5.824,5.824,0,0,0-.031-.6A4.565,4.565,0,0,0,17.756,15.8a3.685,3.685,0,0,0-3.189-1.29,3.472,3.472,0,0,0-1.466.476,4.263,4.263,0,0,0-1.769,2.036,5.181,5.181,0,0,0-.105,3.843,4.357,4.357,0,0,0,1.653,2.154,3.492,3.492,0,0,0,3.466.354,4.087,4.087,0,0,0,2.123-2.108,4.958,4.958,0,0,0,.48-2.217" transform="translate(0 0)" fill="#fff"/>
    </g>
  </g>
</svg>
