<?xml version="1.0" encoding="utf-8"?>
<!-- Generator: Adobe Illustrator 25.0.1, SVG Export Plug-In . SVG Version: 6.00 Build 0)  -->
<svg version="1.1" id="Layer_1" xmlns="http://www.w3.org/2000/svg" xmlns:xlink="http://www.w3.org/1999/xlink" x="0px" y="0px"
	 viewBox="0 0 512 512" style="enable-background:new 0 0 512 512;" xml:space="preserve">
<style type="text/css">
	.st0{fill:#231F20;}
	.st1{fill:#FFFFFF;}
</style>
<path class="st0" d="M346,392l-21-25c41-11,57-39,57-39c-52,49-194,51-249,0c0,0,14,26,56,39l-23,25c-70-1-97-48-97-48
	c0-104,46-187,46-187c47-33,90-33,90-33l3,4c-58,16-83,42-83,42c68-46,208-42,263,0c1-1-33-28-86-42l5-4c0,0,43,0,90,33
	c0,0,46,83,46,187C443,344,416,391,346,392z"/>
<ellipse class="st1" cx="196" cy="279" rx="33" ry="35"/>
<ellipse class="st1" cx="312" cy="279" rx="33" ry="35"/>
</svg>
