<svg xmlns="http://www.w3.org/2000/svg" width="37.073" height="37.073" viewBox="0 0 37.073 37.073">
  <g id="Groupe_331" data-name="Groupe 331" transform="translate(-58.419 0)">
    <path id="Tracé_76" data-name="Tracé 76" d="M160.081,37.073H144.245a10.63,10.63,0,0,1-10.618-10.618V10.618A10.63,10.63,0,0,1,144.245,0h15.836A10.631,10.631,0,0,1,170.7,10.618V26.454a10.631,10.631,0,0,1-10.618,10.618M144.245,3.06a7.567,7.567,0,0,0-7.558,7.558V26.454a7.567,7.567,0,0,0,7.558,7.558h15.836a7.567,7.567,0,0,0,7.558-7.558V10.618a7.567,7.567,0,0,0-7.558-7.558Z" transform="translate(-75.208 0)" fill="#fff"/>
    <path id="Tracé_77" data-name="Tracé 77" d="M162.727,39.441a10.3,10.3,0,1,1,10.3-10.3,10.309,10.309,0,0,1-10.3,10.3m0-17.533a7.237,7.237,0,1,0,7.236,7.237,7.245,7.245,0,0,0-7.236-7.237" transform="translate(-85.791 -10.608)" fill="#fff"/>
    <path id="Tracé_78" data-name="Tracé 78" d="M195.784,14.191a2.359,2.359,0,1,1,2.359,2.359,2.359,2.359,0,0,1-2.359-2.359" transform="translate(-110.192 -6.659)" fill="#fff"/>
  </g>
</svg>
