<svg id="Groupe_389" data-name="Groupe 389" xmlns="http://www.w3.org/2000/svg" xmlns:xlink="http://www.w3.org/1999/xlink" width="47.444" height="30.435" viewBox="0 0 47.444 30.435">
  <defs>
    <clipPath id="clip-path">
      <rect id="Rectangle_928" data-name="Rectangle 928" width="47.444" height="30.435" fill="none"/>
    </clipPath>
  </defs>
  <g id="Groupe_246" data-name="Groupe 246" clip-path="url(#clip-path)">
    <path id="Tracé_780" data-name="Tracé 780" d="M0,3.126A40.662,40.662,0,0,1,4.448.719C4.942.494,5.436.264,5.931.05a1.341,1.341,0,0,1,.741.011c1.317.062,3.838,0,5.189.023,8.555,0,21.131,0,29.653,0a53.128,53.128,0,0,1,5.93,3.043,52.685,52.685,0,0,1-5.93,3.043c-8.509,0-21.111,0-29.653,0-1.348.018-3.862-.038-5.189.023a1.344,1.344,0,0,1-.741.01c-.494-.215-.988-.444-1.483-.669A40.586,40.586,0,0,1,0,3.126" transform="translate(0 0)" fill="#fff"/>
    <path id="Tracé_781" data-name="Tracé 781" d="M0,42.859a40.714,40.714,0,0,1,4.448-2.407c.494-.225.989-.455,1.483-.669a1.341,1.341,0,0,1,.741.011c1.317.062,3.838,0,5.189.023,8.555,0,21.131,0,29.653,0a53.231,53.231,0,0,1,5.93,3.043,52.634,52.634,0,0,1-5.93,3.043c-8.509,0-21.111,0-29.653,0-1.348.019-3.862-.038-5.189.023a1.344,1.344,0,0,1-.741.011c-.494-.215-.988-.444-1.483-.67A40.483,40.483,0,0,1,0,42.859" transform="translate(0 -27.642)" fill="#fff"/>
    <path id="Tracé_782" data-name="Tracé 782" d="M0,82.591a40.608,40.608,0,0,1,4.448-2.407c.494-.225.989-.455,1.483-.67a1.346,1.346,0,0,1,.741.011c1.317.062,3.838,0,5.189.023,8.555,0,21.131,0,29.653,0a53.074,53.074,0,0,1,5.93,3.043,52.685,52.685,0,0,1-5.93,3.043c-8.509,0-21.111,0-29.653,0-1.348.018-3.862-.038-5.189.023a1.344,1.344,0,0,1-.741.01c-.494-.215-.988-.444-1.483-.669A40.586,40.586,0,0,1,0,82.591" transform="translate(0 -55.283)" fill="#fff"/>
  </g>
</svg>
