<svg xmlns="http://www.w3.org/2000/svg" xmlns:xlink="http://www.w3.org/1999/xlink" width="27.935" height="40.673" viewBox="0 0 27.935 40.673">
  <defs>
    <clipPath id="clip-path">
      <rect id="Rectangle_977" data-name="Rectangle 977" width="27.935" height="40.673" fill="none"/>
    </clipPath>
  </defs>
  <g id="Groupe_380" data-name="Groupe 380" clip-path="url(#clip-path)">
    <path id="Tracé_1521" data-name="Tracé 1521" d="M3.695,0A28.172,28.172,0,0,1,5.675,2.538c.592.846,1.155,1.692,1.653,2.538a.559.559,0,0,1,.057.317,2.693,2.693,0,0,0-.1.635V7.615c0,6.245,0,16.582,0,22.845v5.077c-.268.423-.529.846-.8,1.269a38.429,38.429,0,0,1-2.792,3.807A38.27,38.27,0,0,1,.9,36.805c-.274-.423-.535-.846-.8-1.269V30.459c0-6.274,0-16.589,0-22.845V6.028A2.689,2.689,0,0,0,0,5.394a.559.559,0,0,1,.057-.317c.5-.846,1.061-1.692,1.653-2.538A28.172,28.172,0,0,1,3.695,0" transform="translate(0)" fill="#fff"/>
    <path id="Tracé_1522" data-name="Tracé 1522" d="M175.195.5a28.158,28.158,0,0,1,1.981,2.538c.592.846,1.155,1.692,1.653,2.538a.56.56,0,0,1,.057.317,2.692,2.692,0,0,0-.1.635V8.115c0,6.245,0,16.582,0,22.845v5.077c-.268.423-.529.846-.8,1.269a38.425,38.425,0,0,1-2.792,3.807,38.28,38.28,0,0,1-2.792-3.807c-.274-.423-.535-.846-.8-1.269V30.959c0-6.274,0-16.589,0-22.845V6.528a2.688,2.688,0,0,0-.1-.635.559.559,0,0,1,.057-.317c.5-.846,1.061-1.692,1.653-2.538A28.173,28.173,0,0,1,175.195.5" transform="translate(-150.954 -0.44)" fill="#fff"/>
  </g>
</svg>
