<?xml version="1.0" encoding="utf-8"?>
<!-- Generator: Adobe Illustrator 25.0.1, SVG Export Plug-In . SVG Version: 6.00 Build 0)  -->
<svg version="1.1" id="Layer_1" xmlns="http://www.w3.org/2000/svg" xmlns:xlink="http://www.w3.org/1999/xlink" x="0px" y="0px"
	 viewBox="0 0 20 16" style="enable-background:new 0 0 20 16;" xml:space="preserve">
<style type="text/css">
	.st0{fill-rule:evenodd;clip-rule:evenodd;fill:#231F20;}
</style>
<desc>Created with Sketch.</desc>
<g id="Page-1">
	<g id="Dribbble-Light-Preview" transform="translate(-60.000000, -7521.000000)">
		<g id="icons" transform="translate(56.000000, 160.000000)">
			<path id="twitter-_x5B__x23_154_x5D_" class="st0" d="M10.3,7377c7.5,0,11.7-6.2,11.7-11.5c0-0.2,0-0.3,0-0.5
				c0.8-0.6,1.5-1.3,2-2.1c-0.7,0.3-1.5,0.5-2.4,0.6c0.9-0.5,1.5-1.3,1.8-2.2c-0.8,0.5-1.7,0.8-2.6,1c-1.6-1.6-4.2-1.7-5.8-0.2
				c-1.1,1-1.5,2.5-1.2,3.9c-3.3-0.2-6.4-1.7-8.5-4.2c-1.1,1.8-0.5,4.2,1.3,5.4c-0.7,0-1.3-0.2-1.9-0.5v0.1c0,1.9,1.4,3.6,3.3,4
				c-0.6,0.2-1.2,0.2-1.9,0.1c0.5,1.6,2.1,2.8,3.8,2.8c-1.5,1.1-3.2,1.7-5.1,1.7c-0.3,0-0.7,0-1-0.1C5.9,7376.4,8.1,7377,10.3,7377"
				/>
		</g>
	</g>
</g>
</svg>
