<svg
  id="Groupe_6"
  data-name="Groupe 6"
  xmlns="http://www.w3.org/2000/svg"
  xmlns:xlink="http://www.w3.org/1999/xlink"
  width="265.461"
  height="38.99"
  viewBox="0 0 265.461 38.99"
>
  <defs>
    <clipPath id="clip-path">
      <rect
        id="Rectangle_10"
        data-name="Rectangle 10"
        width="265.461"
        height="38.99"
        fill="none"
      />
    </clipPath>
  </defs>
  <g id="Groupe_5" data-name="Groupe 5" clip-path="url(#clip-path)">
    <text
      id="template_minting"
      transform="translate(80.496 27.116)"
      fill="#fff"
      font-size="28"
      font-family="Kusanagi"
    ><tspan x="0" y="0" letter-spacing="0.209em">I</tspan><tspan
        y="0"
        letter-spacing="0.21em"
      >N</tspan><tspan y="0" letter-spacing="0.209em">ITI</tspan><tspan
        y="0"
        letter-spacing="0.21em"
      >U</tspan><tspan y="0">M</tspan></text>
    <path
      id="Tracé_1"
      data-name="Tracé 1"
      d="M2.119,15.136c.443.859.818,1.718,1.168,2.577s.7,1.718.946,2.577a4.986,4.986,0,0,1-.051.644c0,1.146,0,3.339,0,4.509l-.6-1.458,10,10,.6.6c-.018.163.013,8.208,0,8.636v1.945c0,.332.121.651-.051.973a48.159,48.159,0,0,1-2.011,4.864,47.974,47.974,0,0,1-2.011-4.864c-.172-.324-.055-.639-.051-.973V35.442l.6,1.458-10-10-.6-.6c0-1.261,0-3.461,0-4.719v-.644A4.986,4.986,0,0,1,0,20.29a35.95,35.95,0,0,1,2.114-5.154"
      transform="translate(0 -12.016)"
      fill="#fff"
    />
    <path
      id="Tracé_2"
      data-name="Tracé 2"
      d="M53.17.028a16.093,16.093,0,0,1,2.342.036c.24.024.482.046.717.075.112.02.148.116.193.2.1.147.457.467.583.605l.792.792c2.285,2.287,5.648,5.646,7.924,7.924a19.9,19.9,0,0,1,.127,3.043,19.72,19.72,0,0,1-3.043-.127c-2.274-2.273-5.641-5.642-7.924-7.924l-.792-.792c-.132-.121-.458-.485-.605-.583-.087-.046-.183-.081-.2-.193-.029-.235-.051-.477-.075-.717A16.12,16.12,0,0,1,53.17.028"
      transform="translate(-42.187 0)"
      fill="#fff"
    />
    <path
      id="Tracé_3"
      data-name="Tracé 3"
      d="M217.173,15.136a35.908,35.908,0,0,1,2.114,5.154,4.984,4.984,0,0,1-.051.644v.644c0,1.256,0,3.459,0,4.719l-.6.6-10,10,.6-1.458v9.727a1.829,1.829,0,0,1-.051.973,48.022,48.022,0,0,1-2.011,4.864,47.878,47.878,0,0,1-2.011-4.864,1.833,1.833,0,0,1-.051-.973V43.224c0-.457,0-8.451,0-8.636l.6-.6,10-10-.6,1.458c0-1.168,0-3.356,0-4.509a4.984,4.984,0,0,1-.051-.644c.251-.859.606-1.718.946-2.577s.725-1.718,1.168-2.577"
      transform="translate(-162.796 -12.016)"
      fill="#fff"
    />
    <path
      id="Tracé_4"
      data-name="Tracé 4"
      d="M171.893.029a16.063,16.063,0,0,1-.036,2.342c-.024.24-.046.482-.075.717-.02.112-.116.148-.2.193-.147.1-.467.457-.605.583l-.792.792c-2.287,2.285-5.646,5.648-7.924,7.924a19.9,19.9,0,0,1-3.043.127,19.721,19.721,0,0,1,.127-3.043c2.273-2.274,5.642-5.641,7.924-7.924l.792-.792c.121-.132.485-.458.583-.605.046-.087.081-.183.193-.2.235-.029.477-.051.717-.075a16.121,16.121,0,0,1,2.342-.036"
      transform="translate(-126.38 -0.001)"
      fill="#fff"
    />
  </g>
</svg>
