<svg id="Groupe_295" data-name="Groupe 295" xmlns="http://www.w3.org/2000/svg" xmlns:xlink="http://www.w3.org/1999/xlink" width="53.63" height="36.221" viewBox="0 0 53.63 36.221">
  <defs>
    <clipPath id="clip-path">
      <rect id="Rectangle_934" data-name="Rectangle 934" width="53.63" height="36.221" fill="#fff"/>
    </clipPath>
  </defs>
  <g id="Groupe_286" data-name="Groupe 286">
    <g id="Groupe_257" data-name="Groupe 257" clip-path="url(#clip-path)">
      <path id="Tracé_1490" data-name="Tracé 1490" d="M2.908,31.877A31.033,31.033,0,0,1,5.527,36a2.635,2.635,0,0,1,.282.589,3.111,3.111,0,0,1-.07.589c0,.358,0,1.393,0,1.768v2.358l-.829-2,9.148,9.148.829.829V59.356a2.118,2.118,0,0,0,.065.445.685.685,0,0,1-.134.445,37.7,37.7,0,0,1-2.76,4.45,37.576,37.576,0,0,1-2.76-4.45.681.681,0,0,1-.134-.445,2.111,2.111,0,0,0,.064-.445v-8.9l.829,2L.907,43.308.078,42.48V41.308c0-.759,0-2.8,0-3.537v-.589a3.128,3.128,0,0,1-.07-.589A2.528,2.528,0,0,1,.289,36a31.1,31.1,0,0,1,2.619-4.126" transform="translate(0 -28.475)" fill="#fff"/>
      <path id="Tracé_1491" data-name="Tracé 1491" d="M98.452.573A20.321,20.321,0,0,1,101.925,0c.181,0,.133.215.25.294.048.045.395.4.453.453,1.785,1.783,4.736,4.737,6.525,6.525l1.45,1.45a24.793,24.793,0,0,1-.551,3.451,24.718,24.718,0,0,1-3.451.551l-1.45-1.45c-1.791-1.794-4.739-4.737-6.525-6.525-.036-.043-.416-.411-.453-.453-.079-.117-.3-.069-.294-.25A20.3,20.3,0,0,1,98.452.573" transform="translate(-87.434 0)" fill="#fff"/>
      <path id="Tracé_1492" data-name="Tracé 1492" d="M374.449,31.877A31.019,31.019,0,0,1,377.068,36a2.649,2.649,0,0,1,.282.589,3.125,3.125,0,0,1-.07.589v.589c0,.731,0,2.775,0,3.537V42.48l-.829.829L367.3,52.456l.829-2v8.9a2.11,2.11,0,0,0,.064.445.681.681,0,0,1-.134.445,37.633,37.633,0,0,1-2.76,4.45,37.545,37.545,0,0,1-2.76-4.45.681.681,0,0,1-.134-.445,2.118,2.118,0,0,0,.065-.445V49.284l.829-.829,9.148-9.148-.829,2V38.95c0-.358,0-1.414,0-1.768a3.115,3.115,0,0,1-.07-.589A2.57,2.57,0,0,1,371.83,36a31.078,31.078,0,0,1,2.619-4.126" transform="translate(-323.727 -28.475)" fill="#fff"/>
      <path id="Tracé_1493" data-name="Tracé 1493" d="M297.581.573a20.318,20.318,0,0,1,.573,3.473c0,.181-.215.133-.294.25-.045.048-.4.395-.453.453-1.783,1.785-4.737,4.736-6.525,6.525l-1.45,1.45a24.793,24.793,0,0,1-3.451-.551,24.757,24.757,0,0,1-.551-3.451l1.45-1.45c1.794-1.791,4.737-4.739,6.525-6.525.043-.036.411-.415.453-.453.117-.079.069-.3.25-.294a20.3,20.3,0,0,1,3.472.573" transform="translate(-254.97 0)" fill="#fff"/>
    </g>
  </g>
</svg>
