<svg xmlns="http://www.w3.org/2000/svg" xmlns:xlink="http://www.w3.org/1999/xlink" width="43.936" height="34.068" viewBox="0 0 43.936 34.068">
  <defs>
    <clipPath id="clip-path">
      <rect id="Rectangle_63" data-name="Rectangle 63" width="43.936" height="34.068"/>
    </clipPath>
  </defs>
  <g id="Groupe_26" data-name="Groupe 26" clip-path="url(#clip-path)">
    <path id="Tracé_30" data-name="Tracé 30" d="M33.968,28.322c-.289-.23-.568-.45-.843-.674a.118.118,0,0,0-.147-.012q-1.129.532-2.3.958a26.281,26.281,0,0,1-2.986.888,24.724,24.724,0,0,1-2.532.456c-.379.048-.759.088-1.14.116s-.764.045-1.146.067c-.52.03-1.041.025-1.56.012-.452-.011-.905-.038-1.357-.077q-.9-.076-1.789-.208a24.9,24.9,0,0,1-2.569-.528,27.441,27.441,0,0,1-3.514-1.175c-.385-.158-.765-.326-1.142-.5-.058-.027-.1-.046-.164,0-.275.225-.552.447-.845.682a23.181,23.181,0,0,0,3.73,1.824c-.125.285-.266.544-.406.8a27.863,27.863,0,0,1-1.492,2.455c-.136.2-.28.393-.412.594a.119.119,0,0,1-.163.052c-1.075-.341-2.134-.725-3.173-1.162q-1.234-.518-2.427-1.126Q4.075,30.993,2.64,30.08c-.772-.491-1.52-1.016-2.265-1.547A.506.506,0,0,1,.143,28.1c-.015-.4-.05-.8-.079-1.193-.092-1.22-.055-2.441-.06-3.662,0-.366.018-.733.043-1.1.036-.539.076-1.078.132-1.615q.16-1.531.44-3.046a36.728,36.728,0,0,1,.973-3.98,37.4,37.4,0,0,1,1.421-3.88c.333-.775.686-1.54,1.067-2.292Q5.029,5.459,6.153,3.68c.152-.241.31-.477.46-.719a.423.423,0,0,1,.194-.168Q8.179,2.16,9.6,1.637c.832-.306,1.675-.576,2.528-.82,1.141-.327,2.3-.585,3.466-.8.165-.031.165-.03.243.114.384.707.738,1.43,1.052,2.171a.124.124,0,0,0,.159.091c.61-.093,1.222-.171,1.837-.224q.693-.06,1.388-.1c.339-.019.679-.013,1.017-.034.312-.02.624-.021.936-.015.4.009.8.016,1.2.033q.72.031,1.438.1c.669.061,1.336.138,2,.237.116.017.116.018.166-.1q.369-.869.8-1.711c.079-.156.172-.306.246-.465.052-.111.061-.127.2-.1.505.091,1.009.19,1.511.3A35.765,35.765,0,0,1,33.7,1.422c.988.342,1.96.724,2.914,1.153.17.076.337.157.509.228a.357.357,0,0,1,.161.157c.32.5.642.992.949,1.5q.994,1.636,1.837,3.355a38.466,38.466,0,0,1,1.567,3.666q.626,1.711,1.086,3.474c.256.979.467,1.967.644,2.963.112.634.2,1.272.278,1.912.068.58.127,1.161.167,1.744.025.36.044.72.066,1.079.024.405.009.811.037,1.214a6.376,6.376,0,0,1,.022.735c-.022.491-.028.983-.042,1.474-.011.388-.038.775-.065,1.162-.025.353-.06.707-.086,1.06a.2.2,0,0,1-.108.153c-.377.283-.76.556-1.147.824a36.343,36.343,0,0,1-3.252,2.014,35.57,35.57,0,0,1-4.239,1.972c-.71.275-1.429.522-2.151.76-.228.075-.23.076-.375-.128A26.011,26.011,0,0,1,30.7,31.064q-.214-.4-.424-.8c-.053-.1-.049-.112.059-.153a23.153,23.153,0,0,0,2.143-.955c.483-.245.957-.509,1.423-.786a.727.727,0,0,0,.066-.051m-4.742-5.083a3.622,3.622,0,0,0,.594-.048,3.743,3.743,0,0,0,2.009-1.042,4.363,4.363,0,0,0,.79-1.063,5.192,5.192,0,0,0,.553-2.953,4.741,4.741,0,0,0-.531-1.746,4.023,4.023,0,0,0-1.933-1.849,3.442,3.442,0,0,0-2.728-.077,3.958,3.958,0,0,0-2.1,1.917,4.912,4.912,0,0,0-.509,3.165,4.538,4.538,0,0,0,1.5,2.77,3.6,3.6,0,0,0,2.358.925M18.6,18.7a5.716,5.716,0,0,0-.031-.589,4.481,4.481,0,0,0-1.14-2.6A3.617,3.617,0,0,0,14.3,14.245a3.408,3.408,0,0,0-1.439.467,4.185,4.185,0,0,0-1.736,2,5.086,5.086,0,0,0-.1,3.772A4.277,4.277,0,0,0,12.643,22.6a3.428,3.428,0,0,0,3.4.348,4.012,4.012,0,0,0,2.084-2.069A4.867,4.867,0,0,0,18.6,18.7" transform="translate(0 0)"/>
  </g>
</svg>
