<svg xmlns="http://www.w3.org/2000/svg" width="40.826" height="33.267" viewBox="0 0 40.826 33.267">
  <path id="Tracé_1489" data-name="Tracé 1489" d="M294.869,4.477a2.683,2.683,0,0,1-.27.77,8.358,8.358,0,0,1-3.208,3.728c-.029.018-.058.037-.086.057-.008.006-.011.018-.026.045A16.856,16.856,0,0,0,295.97,7.8a.249.249,0,0,1-.069.168,16.83,16.83,0,0,1-3.894,4.026.329.329,0,0,0-.157.325,17.741,17.741,0,0,1-.044,2.6,23.965,23.965,0,0,1-.91,4.927,24.6,24.6,0,0,1-4.88,9.107,22.411,22.411,0,0,1-11.735,7.36,24.225,24.225,0,0,1-3.776.653,25.71,25.71,0,0,1-2.895.122,23.807,23.807,0,0,1-8.645-1.771,24.239,24.239,0,0,1-3.642-1.867c-.052-.033-.1-.069-.181-.122A16.981,16.981,0,0,0,267.5,29.884c-.035-.072-.087-.056-.127-.057a8.41,8.41,0,0,1-7.622-5.671c-.049-.139-.013-.146.115-.124a8.346,8.346,0,0,0,3.469-.128c.032-.008.064-.022.129-.045a8.422,8.422,0,0,1-6.706-8.336,8.458,8.458,0,0,0,3.782,1.048c-.2-.153-.371-.277-.535-.409a8.232,8.232,0,0,1-3.037-5.062,8.26,8.26,0,0,1,.886-5.542c.1-.2.108-.2.252-.023a23.886,23.886,0,0,0,4.248,4,23.807,23.807,0,0,0,6.208,3.28,24,24,0,0,0,4.162,1.054c.784.127,1.575.206,2.368.255.124.008.179,0,.146-.157A8.394,8.394,0,0,1,279.169,5a8.059,8.059,0,0,1,3.115-1.095,8.331,8.331,0,0,1,5.264.988,8.081,8.081,0,0,1,1.935,1.493.212.212,0,0,0,.226.066,16.863,16.863,0,0,0,5.069-1.935.626.626,0,0,1,.094-.037Z" transform="translate(-255.144 -3.825)"/>
</svg>
