<svg xmlns="http://www.w3.org/2000/svg" xmlns:xlink="http://www.w3.org/1999/xlink" width="44" height="44" viewBox="0 0 44 44">
  <defs>
    <clipPath id="clip-path">
      <rect id="Rectangle_959" data-name="Rectangle 959" width="24.041" height="23.981"/>
    </clipPath>
  </defs>
  <g id="Groupe_346" data-name="Groupe 346" transform="translate(-0.163)">
    <g id="Groupe_303" data-name="Groupe 303">
      <rect id="Rectangle_956" data-name="Rectangle 956" width="44" height="44" rx="10" transform="translate(0.163 0)" fill="#fff"/>
    </g>
    <g id="Groupe_315" data-name="Groupe 315" transform="translate(10.371 8.785)">
      <g id="Groupe_314" data-name="Groupe 314" clip-path="url(#clip-path)">
        <path id="Tracé_1502" data-name="Tracé 1502" d="M52.387,45.087c.129-.187.249-.381.387-.561a4.977,4.977,0,0,1,2.188-1.619,5.782,5.782,0,0,1,1.981-.388,7.639,7.639,0,0,1,2.847.411A4.341,4.341,0,0,1,62.1,44.853a6.689,6.689,0,0,1,.812,2.406,13.245,13.245,0,0,1,.166,1.627c.034,1.08.036,2.16.038,3.24,0,2.185,0,4.37,0,6.554v.24H58.3c-.214,0-.215,0-.215-.217q0-4.175,0-8.349a5.357,5.357,0,0,0-.359-2.118,2.071,2.071,0,0,0-1.812-1.313,3.686,3.686,0,0,0-1.442.122,2.348,2.348,0,0,0-1.6,1.579,4.913,4.913,0,0,0-.295,1.636q-.023,4.206-.033,8.412c0,.281.027.247-.246.247-1.515,0-3.03,0-4.545,0-.157,0-.205-.041-.2-.2q.006-7.806,0-15.611c0-.215,0-.22.224-.22h4.348c.222,0,.224,0,.224.218q0,.9,0,1.795v.174l.044.009" transform="translate(-39.076 -34.942)"/>
        <path id="Tracé_1503" data-name="Tracé 1503" d="M2.221,60.654V44.846c0-.222,0-.222.227-.222H6.977c.238,0,.239,0,.239.238V60.425c0,.229,0,.229-.22.229H2.221Z" transform="translate(-1.825 -36.676)"/>
        <path id="Tracé_1504" data-name="Tracé 1504" d="M0,2.9a2.9,2.9,0,0,1,5.808,0A2.871,2.871,0,0,1,2.9,5.812,2.868,2.868,0,0,1,0,2.9" transform="translate(0 -0.001)"/>
      </g>
    </g>
  </g>
</svg>
